<svg xmlns="http://www.w3.org/2000/svg" xmlns:xlink="http://www.w3.org/1999/xlink" width="500" zoomAndPan="magnify" viewBox="0 0 375 374.999991" height="500" preserveAspectRatio="xMidYMid meet" version="1.0"><defs><clipPath id="id1"><path d="M 95.730469 91.769531 L 286.980469 91.769531 L 286.980469 283.019531 L 95.730469 283.019531 Z M 95.730469 91.769531 " clip-rule="nonzero"/></clipPath><clipPath id="id2"><path d="M 177.542969 173.585938 L 205.292969 173.585938 L 205.292969 201.335938 L 177.542969 201.335938 Z M 177.542969 173.585938 " clip-rule="nonzero"/></clipPath></defs><g clip-path="url(#id1)"><path fill="rgb(0%, 0%, 0%)" d="M 286.980469 187.394531 C 286.980469 239.988281 243.949219 283.019531 191.355469 283.019531 C 138.761719 283.019531 95.730469 239.988281 95.730469 187.394531 C 95.730469 134.800781 138.761719 91.769531 191.355469 91.769531 C 243.949219 91.769531 286.980469 134.800781 286.980469 187.394531 Z M 286.980469 187.394531 " fill-opacity="1" fill-rule="nonzero"/></g><g clip-path="url(#id2)"><path fill="rgb(100%, 8.628845%, 8.628845%)" d="M 205.292969 187.460938 C 205.292969 195.09375 199.050781 201.335938 191.417969 201.335938 C 183.789062 201.335938 177.542969 195.09375 177.542969 187.460938 C 177.542969 179.832031 183.789062 173.585938 191.417969 173.585938 C 199.050781 173.585938 205.292969 179.832031 205.292969 187.460938 Z M 205.292969 187.460938 " fill-opacity="1" fill-rule="nonzero"/></g></svg>